<svg width="19" height="19" viewBox="0 0 19 19" fill="none" xmlns="http://www.w3.org/2000/svg">
<path d="M9.5 0C4.25379 0 0 4.25379 0 9.5C0 14.7462 4.25379 19 9.5 19C14.7462 19 19 14.7462 19 9.5C19 4.25379 14.7462 0 9.5 0ZM15.2535 13.2852C15.0266 13.9253 14.1264 14.4584 13.407 14.6134C12.9163 14.7185 12.2725 14.8016 10.1124 13.905C7.34728 12.7595 5.56718 9.9501 5.42883 9.76748C5.29602 9.58485 4.31097 8.28068 4.31097 6.93039C4.31097 5.5801 4.99718 4.9234 5.27204 4.64116C5.49893 4.40874 5.8734 4.30359 6.23311 4.30359C6.34932 4.30359 6.45447 4.30913 6.54854 4.31466C6.82524 4.32573 6.96359 4.34233 7.14621 4.77951C7.37311 5.32553 7.9265 6.67583 7.99107 6.81602C8.05748 6.95437 8.12573 7.14252 8.03165 7.32515C7.94311 7.5133 7.86563 7.59631 7.72728 7.7568C7.58893 7.91728 7.45612 8.03903 7.31777 8.21058C7.19049 8.36 7.0466 8.52049 7.20709 8.79534C7.36757 9.0665 7.91913 9.96854 8.73262 10.6917C9.78223 11.6269 10.6345 11.9257 10.9388 12.053C11.1657 12.1471 11.4369 12.125 11.6029 11.9479C11.8132 11.721 12.0733 11.3447 12.3371 10.9739C12.5252 10.7083 12.7632 10.675 13.0122 10.7691C13.2668 10.8577 14.6097 11.5217 14.8864 11.6601C15.1631 11.7984 15.3457 11.8649 15.4121 11.9811C15.4804 12.0954 15.4804 12.6433 15.2535 13.2852Z" fill="#202126"/>
</svg>
