<svg width="18" height="19" viewBox="0 0 18 19" fill="none" xmlns="http://www.w3.org/2000/svg">
<path d="M9 0C4.03684 0 0 4.26111 0 9.5C0 11.2861 0.471053 13.0222 1.36316 14.5278C1.00789 15.8417 0.365789 18.3306 0.360526 18.3556C0.326316 18.4833 0.363158 18.6222 0.452632 18.7139C0.544737 18.8056 0.676316 18.8417 0.794737 18.8L4.36053 17.6417C5.75789 18.5306 7.35789 19 9 19C13.9632 19 18 14.7389 18 9.5C18 4.26111 13.9632 0 9 0ZM14.6395 13.4556C14.4105 14.1417 13.4974 14.7083 12.7711 14.875C12.2737 14.9861 11.6237 15.075 9.43421 14.1194C6.63421 12.8944 4.83158 9.89444 4.6921 9.69722C4.55789 9.50278 3.56053 8.10833 3.56053 6.66389C3.56053 5.21944 4.25526 4.51944 4.53421 4.21667C4.76316 3.96944 5.14474 3.85556 5.50789 3.85556C5.62632 3.85556 5.73158 3.86111 5.82632 3.86667C6.10526 3.88056 6.24737 3.89722 6.43158 4.36389C6.66053 4.94722 7.22105 6.39167 7.28684 6.53889C7.35526 6.68611 7.42368 6.88889 7.32632 7.08333C7.23684 7.28333 7.15789 7.375 7.01842 7.54444C6.87895 7.71667 6.74474 7.84722 6.60526 8.03055C6.47632 8.18889 6.33158 8.36111 6.49211 8.65555C6.65526 8.94444 7.21316 9.90833 8.03684 10.6833C9.1 11.6833 9.96316 12.0028 10.2711 12.1361C10.5 12.2361 10.7737 12.2139 10.9421 12.025C11.1553 11.7833 11.4184 11.3806 11.6868 10.9833C11.8763 10.7 12.1184 10.6639 12.3711 10.7639C12.6289 10.8583 13.9895 11.5694 14.2684 11.7139C14.5474 11.8611 14.7316 11.9333 14.8 12.0583C14.8711 12.1861 14.8711 12.7694 14.6395 13.4556Z" fill="#47D25C"/>
</svg>
