<svg id="wats-pink" width="18" height="19" viewBox="0 0 18 19" fill="none" xmlns="http://www.w3.org/2000/svg">
<path d="M9 0C4.03684 0 0 4.26111 0 9.5C0 11.2861 0.471053 13.0222 1.36316 14.5278C1.00789 15.8417 0.365789 18.3306 0.360526 18.3556C0.326316 18.4833 0.363158 18.6222 0.452632 18.7139C0.544737 18.8056 0.676316 18.8417 0.794737 18.8L4.36053 17.6417C5.75789 18.5306 7.35789 19 9 19C13.9632 19 18 14.7389 18 9.5C18 4.26111 13.9632 0 9 0ZM13.3868 13.4056C13.1263 13.9917 12.7474 14.4778 12.2 14.7861C12.0447 14.875 11.8605 14.9028 11.6868 14.9583C11.4868 14.8944 11.2947 14.85 11.1184 14.7722C9.27895 13.9667 7.58684 12.9278 6.24474 11.3361C5.48158 10.4306 4.88684 9.40833 4.38158 8.325C4.1421 7.81111 3.9421 7.27778 3.73421 6.75C3.54737 6.26667 3.82368 5.76667 4.11316 5.40278C4.38684 5.06111 4.73684 4.8 5.11579 4.60556C5.41316 4.45556 5.70526 4.54167 5.92105 4.80833C6.38947 5.38333 6.81842 5.98611 7.16842 6.65C7.38158 7.05833 7.32368 7.55833 6.93684 7.83611C6.8421 7.90278 6.75526 7.98333 6.66842 8.05833C6.5921 8.125 6.51842 8.19444 6.46579 8.28333C6.36842 8.45 6.36316 8.64444 6.42632 8.825C6.90526 10.2139 7.71053 11.2944 9.03684 11.875C9.25 11.9667 9.46053 12.075 9.70526 12.0472C10.1132 11.9972 10.2474 11.525 10.5342 11.275C10.8132 11.0333 11.1711 11.0306 11.4737 11.2306C11.7763 11.4333 12.0684 11.6472 12.3579 11.8667C12.6421 12.0806 12.9263 12.2917 13.1895 12.5361C13.4421 12.7778 13.5289 13.0861 13.3868 13.4056ZM11.0132 8.88056C10.8868 8.88333 10.9526 8.88056 11 8.87778C10.8079 8.875 10.7053 8.76111 10.6842 8.57222C10.6684 8.43611 10.6579 8.3 10.6263 8.16667C10.5658 7.90555 10.4342 7.66389 10.2263 7.50556C10.1289 7.43056 10.0184 7.375 9.90263 7.33889C9.75526 7.29444 9.60263 7.30555 9.45526 7.26667C9.29474 7.225 9.20789 7.08889 9.23158 6.93056C9.25526 6.78611 9.38684 6.675 9.53684 6.68611C10.4684 6.75833 11.1368 7.26667 11.2316 8.425C11.2395 8.50556 11.2474 8.59444 11.2289 8.67222C11.2 8.80278 11.1132 8.86667 11.0237 8.87778C11.0342 8.87778 11.0368 8.87778 11.0132 8.88056ZM10.4316 6.23056C10.1447 6.08333 9.83684 5.99167 9.52105 5.93611C9.38421 5.91111 9.24474 5.89722 9.10789 5.87778C8.9421 5.85278 8.85263 5.74167 8.86053 5.56667C8.86842 5.40278 8.98158 5.28611 9.15 5.29722C9.70263 5.33055 10.2342 5.45555 10.7263 5.73056C11.7237 6.28889 12.2947 7.16944 12.4605 8.34444C12.4684 8.39722 12.4789 8.45 12.4842 8.50278C12.4947 8.63611 12.5 8.76667 12.5079 8.94167C12.5053 8.97222 12.5026 9.04722 12.4842 9.11944C12.4211 9.375 12.0553 9.40555 11.9711 9.15C11.9447 9.07222 11.9421 8.98611 11.9421 8.90556C11.9421 8.36667 11.8316 7.83055 11.5737 7.36389C11.3079 6.87778 10.9053 6.475 10.4316 6.23056ZM13.5158 9.86389C13.3237 9.86667 13.2368 9.69722 13.2237 9.51389C13.2 9.15278 13.1816 8.78889 13.1342 8.43056C12.8842 6.53889 11.4553 4.975 9.67368 4.63889C9.40526 4.58889 9.13158 4.575 8.85789 4.54444C8.68684 4.525 8.46053 4.51389 8.42368 4.28889C8.3921 4.1 8.5421 3.95 8.71316 3.93889C8.76053 3.93611 8.80526 3.93889 8.85263 3.93889C11.1816 4.00833 8.95526 3.94444 8.85526 3.93889C11.2605 4.01111 13.2342 5.69722 13.6579 8.20555C13.7289 8.63333 13.7553 9.06944 13.7868 9.50556C13.8 9.68889 13.7026 9.86111 13.5158 9.86389Z" fill="#D536FD"/>
</svg>
